PathFileType	4	(X/Y/Z)	c:/Users/goper/Files/vsCode/490R/osim_files/C04/C04_SSWS_02.trc
DataRate	CameraRate	NumFrames	NumMarkers	Units                	OrigDataRate	OrigDataStartFrame	OrigNumFrames
250.00	250.00	8	36	mm	250.0	2042	3266
                Frame#	Time	LPSIS			LASIS			LTH1			LTH2			LTH3			LTH4			LLFE			LMFE			LSH1			LSH2			LSH3			LSH4			LLMAL			LMMAL			LCAL			LMTP5			LTOE			LMTP1			RPSIS			RASIS			RTH1			RTH2			RTH3			RTH4			RLFE			RMFE			RSH1			RSH2			RSH3			RSH4			RLMAL			RMMAL			RCAL			RMTP1			RTOE			RMTP5		
		X1	Y1	Z1	X2	Y2	Z2	X3	Y3	Z3	X4	Y4	Z4	X5	Y5	Z5	X6	Y6	Z6	X7	Y7	Z7	X8	Y8	Z8	X9	Y9	Z9	X10	Y10	Z10	X11	Y11	Z11	X12	Y12	Z12	X13	Y13	Z13	X14	Y14	Z14	X15	Y15	Z15	X16	Y16	Z16	X17	Y17	Z17	X18	Y18	Z18	X19	Y19	Z19	X20	Y20	Z20	X21	Y21	Z21	X22	Y22	Z22	X23	Y23	Z23	X24	Y24	Z24	X25	Y25	Z25	X26	Y26	Z26	X27	Y27	Z27	X28	Y28	Z28	X29	Y29	Z29	X30	Y30	Z30	X31	Y31	Z31	X32	Y32	Z32	X33	Y33	Z33	X34	Y34	Z34	X35	Y35	Z35	X36	Y36	Z36

2042	8.16400	-2134.53320	950.63702	239.96664	0.00000	0.00000	0.00000	0.00000	0.00000	0.00000	0.00000	0.00000	0.00000	-2281.14648	669.97180	342.31845	-2301.88403	617.32745	355.55502	-2200.31812	425.84827	356.99399	-2210.72876	402.32300	241.43814	0.00000	0.00000	0.00000	0.00000	0.00000	0.00000	-2100.84937	391.71472	366.37997	-2060.43335	367.77963	362.42545	-1884.11963	190.53662	344.46552	-1900.27942	208.63582	256.56372	-1834.05530	247.11256	304.85001	-1898.32007	45.36737	329.87222	0.00000	0.00000	0.00000	-1882.23962	72.96791	227.69038	-2139.40405	955.19995	164.99580	0.00000	0.00000	0.00000	-2269.16846	700.50372	32.49769	-2277.27612	645.08197	44.30374	0.00000	0.00000	0.00000	0.00000	0.00000	0.00000	-2388.70435	454.96646	110.46097	-2443.14990	452.66013	217.35789	-2337.35596	320.44272	88.88900	0.00000	0.00000	0.00000	0.00000	0.00000	0.00000	0.00000	0.00000	0.00000	-2359.64453	70.67183	134.70282	-2362.13086	83.98836	222.57147	-2293.16626	41.43388	175.01848	-2491.19751	22.89603	228.31377	-2521.54224	42.60111	192.60197	-2494.83569	14.45786	129.22113
2043	8.16800	-2138.81641	950.71912	239.61404	0.00000	0.00000	0.00000	0.00000	0.00000	0.00000	0.00000	0.00000	0.00000	-2287.15186	669.59497	341.18665	-2308.68823	617.38940	355.11597	-2208.92285	425.80554	356.92859	-2218.99634	402.24136	241.17455	0.00000	0.00000	0.00000	0.00000	0.00000	0.00000	-2108.03809	393.10355	365.27252	-2069.05518	368.84705	362.69727	-1891.71899	193.87244	345.16989	-1907.76636	212.00742	257.28748	-1842.26282	251.46808	305.83661	-1902.79956	47.75567	329.90155	0.00000	0.00000	0.00000	-1888.36072	76.21240	228.64882	-2143.72363	955.45270	164.62788	0.00000	0.00000	0.00000	-2273.17969	700.89374	32.39852	-2281.99243	644.93719	44.67677	0.00000	0.00000	0.00000	0.00000	0.00000	0.00000	-2391.70166	454.68393	110.83581	-2445.51025	452.80130	217.19125	-2338.62109	320.59433	89.16860	0.00000	0.00000	0.00000	0.00000	0.00000	0.00000	0.00000	0.00000	0.00000	-2359.77759	70.69319	134.78246	-2362.06836	84.00314	222.64020	-2293.20508	41.53421	175.01149	-2490.97437	22.85710	228.51073	-2521.58887	42.39074	192.62141	-2494.88086	14.39834	129.26530
2044	8.17200	-2142.22534	950.96075	239.24843	0.00000	0.00000	0.00000	0.00000	0.00000	0.00000	0.00000	0.00000	0.00000	-2293.33447	669.46643	340.16733	-2315.38501	617.47961	354.71539	-2217.58643	425.79193	356.76764	-2227.44507	402.26315	240.92781	0.00000	0.00000	0.00000	0.00000	0.00000	0.00000	-2116.87476	393.84070	365.29431	-2078.54688	369.90564	363.87003	-1898.86853	197.07220	345.81537	-1916.10278	214.56726	258.31754	-1850.79651	255.28293	306.63046	-1907.62415	50.17905	330.11230	0.00000	0.00000	0.00000	-1894.16138	79.38369	229.50906	-2147.49341	955.77496	164.23668	0.00000	0.00000	0.00000	-2277.86133	701.16882	32.48595	-2285.60693	645.32135	44.55635	0.00000	0.00000	0.00000	0.00000	0.00000	0.00000	-2394.20386	454.85355	110.82875	-2447.80200	452.89938	217.11176	-2339.82324	320.74490	89.36762	0.00000	0.00000	0.00000	0.00000	0.00000	0.00000	0.00000	0.00000	0.00000	-2359.85474	70.71085	134.83153	-2362.12646	84.04389	222.68185	-2293.25269	41.64487	175.02841	-2490.88159	22.86359	228.60545	-2521.62354	42.27932	192.57265	-2494.91284	14.30990	129.23053
2045	8.17600	-2146.54883	951.13806	238.98056	0.00000	0.00000	0.00000	0.00000	0.00000	0.00000	0.00000	0.00000	0.00000	-2299.44263	669.29645	339.13083	-2322.16211	617.56000	354.28348	-2226.22437	425.81418	356.56110	-2235.65430	402.47336	240.60028	0.00000	0.00000	0.00000	0.00000	0.00000	0.00000	-2125.70068	394.69342	365.26352	-2087.29248	370.98920	363.92850	-1906.86670	199.60893	346.25900	-1923.81116	217.09613	258.72324	-1859.15442	258.63031	307.11298	-1913.13550	52.87530	330.63940	0.00000	0.00000	0.00000	-1900.35046	82.18605	230.12222	-2152.23901	956.26013	163.93570	0.00000	0.00000	0.00000	-2274.36914	703.76178	30.52448	-2289.08618	645.57025	44.27373	0.00000	0.00000	0.00000	0.00000	0.00000	0.00000	-2397.44067	454.65302	111.42393	-2450.00146	452.93817	217.08214	-2340.72461	320.91269	89.46478	0.00000	0.00000	0.00000	0.00000	0.00000	0.00000	0.00000	0.00000	0.00000	-2360.01660	70.68317	134.90448	-2362.17017	84.06596	222.67082	-2293.29150	41.73757	174.98242	-2491.04932	22.76970	228.57306	-2521.73877	42.12636	192.46033	-2494.96191	14.19356	129.18684
2046	8.18000	-2150.77368	951.37854	238.69824	0.00000	0.00000	0.00000	0.00000	0.00000	0.00000	0.00000	0.00000	0.00000	-2305.57227	669.27490	338.24808	-2328.87476	617.69299	353.80533	-2235.00244	425.91721	356.37708	-2243.86108	402.78903	240.21706	0.00000	0.00000	0.00000	0.00000	0.00000	0.00000	-2134.78345	395.50464	365.32153	-2095.55835	372.00449	363.44516	-1914.12842	202.27518	346.82135	-1931.64771	219.31392	259.20987	-1867.06995	261.53024	307.36212	-1920.01135	55.41813	331.26358	0.00000	0.00000	0.00000	-1906.96643	84.71761	230.73579	-2156.00049	956.55048	163.63840	0.00000	0.00000	0.00000	-2277.97363	704.32385	30.24996	-2291.79443	646.39111	43.75303	0.00000	0.00000	0.00000	-2370.85913	669.94611	59.74198	-2399.65454	454.90298	111.36843	-2452.24512	452.96008	217.04514	-2341.74780	321.09033	89.46677	0.00000	0.00000	0.00000	0.00000	0.00000	0.00000	0.00000	0.00000	0.00000	-2360.07593	70.71209	134.89828	-2362.32617	84.07635	222.66110	-2293.34570	41.83002	174.99774	-2491.06006	22.77625	228.61812	-2521.83032	41.97174	192.40549	-2495.04102	14.07597	129.15866
2047	8.18400	-2154.99121	951.64783	238.47073	0.00000	0.00000	0.00000	0.00000	0.00000	0.00000	0.00000	0.00000	0.00000	-2311.66016	669.24445	337.30969	-2335.62988	617.94116	353.38620	-2243.76270	426.10623	356.15771	-2252.24146	403.14444	239.92493	0.00000	0.00000	0.00000	0.00000	0.00000	0.00000	-2145.82739	395.48782	366.60461	-2104.93286	373.22699	364.27216	-1921.08411	204.87976	347.36133	-1939.18726	221.51045	259.58020	-1874.61707	264.05365	307.37265	-1926.97620	58.03485	332.14096	0.00000	0.00000	0.00000	-1914.50818	86.89092	231.39253	-2160.20996	956.98749	163.39586	0.00000	0.00000	0.00000	-2281.50732	704.90692	29.98162	-2295.51953	646.81805	43.59037	0.00000	0.00000	0.00000	-2374.37915	670.03778	59.64260	-2402.21167	454.91730	111.75299	-2454.34277	453.00189	217.01888	-2342.63794	321.21011	89.43806	0.00000	0.00000	0.00000	0.00000	0.00000	0.00000	0.00000	0.00000	0.00000	-2360.16455	70.70409	134.90439	-2362.28589	84.15367	222.63295	-2293.46411	41.85713	175.01340	-2491.07373	22.80312	228.62781	-2521.90063	41.90370	192.37100	-2495.07593	13.94873	129.15567
2048	8.18800	-2159.09302	951.93475	238.28282	0.00000	0.00000	0.00000	0.00000	0.00000	0.00000	0.00000	0.00000	0.00000	-2317.70288	669.09772	336.29855	-2342.29199	618.22815	352.98782	-2252.67554	426.36206	355.91138	-2260.59717	403.58206	239.53751	0.00000	0.00000	0.00000	0.00000	0.00000	0.00000	-2154.72827	396.45578	366.51129	-2113.86816	374.34088	364.32861	-1928.51746	207.24500	347.81116	-1946.99048	223.56796	259.95526	-1882.18225	266.11462	307.21307	-1934.48962	60.35657	333.14459	0.00000	0.00000	0.00000	-1922.49402	88.74406	232.19730	-2164.80200	957.62500	163.24348	0.00000	0.00000	0.00000	-2285.09692	705.50110	29.61372	-2298.51929	647.41052	44.70072	-2353.10352	725.31061	45.05206	-2377.71875	670.38995	59.37072	-2404.30908	454.96780	111.71140	-2456.33936	452.93311	216.96466	-2343.57788	321.31717	89.26636	0.00000	0.00000	0.00000	0.00000	0.00000	0.00000	0.00000	0.00000	0.00000	-2360.21631	70.73748	134.85287	-2362.24219	84.22579	222.58461	-2293.50928	41.97432	174.96480	-2490.94385	22.80552	228.72688	-2521.88062	41.83633	192.27034	-2495.09766	13.87631	129.14052
2049	8.19200	-2163.29370	952.28760	238.13312	0.00000	0.00000	0.00000	0.00000	0.00000	0.00000	0.00000	0.00000	0.00000	-2323.80225	668.99628	335.31808	-2349.15869	618.48956	352.61636	-2261.47900	426.68579	355.63995	-2268.87231	404.16412	239.18358	0.00000	0.00000	0.00000	0.00000	0.00000	0.00000	-2163.81299	397.39459	366.35742	-2122.73022	375.54309	364.42627	-1945.47717	206.08595	346.46985	-1954.85999	225.45961	260.15829	-1889.68909	268.00620	306.97333	-1942.71790	62.53587	333.97113	0.00000	0.00000	0.00000	-1930.98083	90.50781	233.00587	-2168.56982	957.96600	163.09770	0.00000	0.00000	0.00000	-2287.60352	706.57892	29.23222	-2303.52319	647.44769	44.62971	-2356.65112	725.68536	44.91061	-2381.06494	670.52423	59.21602	-2407.08618	454.64886	112.07660	-2458.19043	452.76788	216.88715	-2344.70044	321.34775	89.09508	0.00000	0.00000	0.00000	0.00000	0.00000	0.00000	0.00000	0.00000	0.00000	-2360.34131	70.69193	134.83801	-2362.35181	84.19450	222.60902	-2293.53809	42.04829	174.92865	-2490.78320	22.84968	228.78580	-2521.91699	41.71902	192.20999	-2495.13452	13.75570	129.15277
